<?xml version="1.0" standalone="no"?><!DOCTYPE svg PUBLIC "-//W3C//DTD SVG 1.1//EN" "http://www.w3.org/Graphics/SVG/1.1/DTD/svg11.dtd"><svg t="1676869110590" class="icon" viewBox="0 0 1024 1024" version="1.1" xmlns="http://www.w3.org/2000/svg" p-id="12170" xmlns:xlink="http://www.w3.org/1999/xlink" width="200" height="200"><path d="M925.013333 439.893333a42.666667 42.666667 0 0 0-32.853333-11.093333 512 512 0 0 0-463.36 463.36 42.666667 42.666667 0 0 0 42.666667 46.506667h170.666666a42.666667 42.666667 0 0 0 42.666667-36.693334 256 256 0 0 1 216.32-216.32 42.666667 42.666667 0 0 0 36.693333-42.666666v-170.666667a42.666667 42.666667 0 0 0-12.8-32.426667z" fill="#17FE83" p-id="12171"></path><path d="M925.013333 269.226667a42.666667 42.666667 0 0 0-32-13.226667A682.666667 682.666667 0 0 0 256 893.013333a42.666667 42.666667 0 0 0 11.52 32A42.666667 42.666667 0 0 0 298.666667 938.666667h170.666666a42.666667 42.666667 0 0 0 42.666667-38.826667 424.106667 424.106667 0 0 1 384-384 42.666667 42.666667 0 0 0 38.826667-42.666667V298.666667a42.666667 42.666667 0 0 0-9.813334-29.44z" fill="#F8D800" p-id="12172"></path><path d="M925.44 97.706667A42.666667 42.666667 0 0 0 896 85.333333 853.333333 853.333333 0 0 0 85.333333 896a45.226667 45.226667 0 0 0 11.52 31.573333A42.666667 42.666667 0 0 0 128 938.666667h170.666667a42.666667 42.666667 0 0 0 42.666666-39.68 597.333333 597.333333 0 0 1 554.666667-554.666667A42.666667 42.666667 0 0 0 938.666667 298.666667V128a42.666667 42.666667 0 0 0-13.226667-30.293333z" fill="#FE6017" p-id="12173"></path><path d="M925.44 97.706667A42.666667 42.666667 0 0 0 896 85.333333 853.333333 853.333333 0 0 0 85.333333 896a45.226667 45.226667 0 0 0 11.52 31.573333A42.666667 42.666667 0 0 0 128 938.666667h515.413333a42.666667 42.666667 0 0 0 42.666667-36.693334 256 256 0 0 1 216.32-216.32 42.666667 42.666667 0 0 0 36.693333-42.666666V128a42.666667 42.666667 0 0 0-13.653333-30.293333z m-91.306667 341.333333l-26.453333 5.973333-16.64 5.12-23.04 6.4-16.64 6.4-22.613333 9.386667-16.213334 7.68q-11.093333 5.12-21.76 11.52l-14.933333 8.533333-21.333333 13.653334-13.653334 8.96-21.76 17.066666-11.093333 8.533334c-9.813333 8.533333-19.626667 17.493333-29.013333 26.88l-2.56 2.56-26.88 29.013333c-2.986667 3.84-5.546667 7.68-8.533334 11.093333s-11.52 14.506667-16.64 21.76l-9.386666 13.653334c-4.693333 7.253333-9.386667 14.08-13.653334 21.333333a130.986667 130.986667 0 0 0-8.533333 15.36 205.653333 205.653333 0 0 0-11.52 21.333333l-7.68 16.213334c-3.413333 7.68-6.4 14.933333-9.386667 22.613333l-7.68 17.92q-4.266667 12.373333-7.68 24.32l-5.12 16.64c-2.133333 8.533333-3.84 17.493333-5.973333 26.453333s0 10.24-2.986667 15.786667a10.24 10.24 0 0 0 0 3.413333h-85.333333v-5.12c0-1.706667 2.56-12.8 3.84-19.2s3.84-21.333333 6.4-32 3.84-13.226667 5.546667-20.053333 5.546667-19.626667 8.96-29.44 4.693333-13.226667 7.253333-20.053333 7.253333-18.346667 11.093333-27.733334l8.106667-18.346666c4.266667-8.96 8.96-17.92 13.653333-26.453334l12.373334-20.48 16.64-26.026666c3.413333-5.546667 7.253333-11.093333 11.093333-16.213334s13.226667-17.92 20.053333-26.88 6.826667-8.96 10.666667-12.8c10.666667-12.8 21.76-25.173333 33.28-36.693333s23.893333-22.613333 36.266667-33.28c4.266667-3.84 8.96-6.826667 13.226666-10.24s17.493333-14.08 26.88-20.48l16.213334-11.093333 24.746666-15.36 17.92-9.813334q13.226667-7.68 26.88-14.08l19.2-8.533333a277.333333 277.333333 0 0 1 28.16-11.52l19.626667-7.253333c9.813333-3.413333 19.626667-6.4 29.866667-8.96l19.626666-5.546667 32.853334-6.826667 17.92-3.413333H853.333333v85.333333h-3.413333zM853.333333 174.933333v85.333334h-12.373333l-26.026667 4.266666-33.28 6.826667-25.6 6.826667c-10.666667 2.986667-21.333333 5.973333-31.573333 9.813333L699.733333 298.666667l-30.72 12.373333-23.466666 10.666667c-10.24 4.693333-20.053333 9.813333-29.866667 15.36l-21.76 11.946666c-10.24 5.973333-19.626667 12.373333-29.44 18.773334s-13.226667 8.106667-19.626667 12.8-20.053333 15.36-30.293333 23.04-10.666667 8.106667-15.36 12.373333c-14.506667 11.946667-28.16 24.746667-42.666667 37.546667l-2.986666 2.986666c-12.8 13.226667-25.6 26.88-37.546667 42.666667-4.266667 4.693333-8.106667 10.24-12.373333 15.36s-15.786667 20.053333-23.04 30.293333-8.533333 13.226667-12.8 19.626667-12.8 19.2-18.773334 29.44-8.106667 14.506667-11.946666 21.76-10.666667 19.626667-15.36 29.866667-7.253333 15.36-10.666667 23.466666-8.533333 20.48-12.373333 30.72-5.973333 16.213333-8.533334 24.746667-6.826667 20.906667-9.813333 31.573333-4.693333 17.066667-6.826667 25.6-4.693333 22.186667-6.826666 33.28-2.986667 17.493333-4.266667 26.026667 0 8.106667 0 12.373333h-85.333333A768 768 0 0 1 853.333333 174.933333zM608.426667 853.333333h-85.333334v-5.546666a433.066667 433.066667 0 0 1 14.506667-52.48v-3.84a495.36 495.36 0 0 1 22.613333-50.773334l5.12-9.386666a442.88 442.88 0 0 1 28.586667-44.8l5.973333-7.68a426.666667 426.666667 0 0 1 78.506667-78.506667l7.68-5.973333a405.76 405.76 0 0 1 45.226667-28.586667l8.96-4.693333a419.84 419.84 0 0 1 50.773333-23.04h3.413333a390.826667 390.826667 0 0 1 52.906667-14.933334h5.546667v85.333334A341.333333 341.333333 0 0 0 608.426667 853.333333z" fill="#486675" p-id="12174"></path></svg>